<?xml version="1.0" encoding="UTF-8" standalone="no"?>
<!-- Created with Inkscape (http://www.inkscape.org/) -->

<svg
   width="100mm"
   height="100mm"
   viewBox="0 0 100 100"
   version="1.1"
   id="svg5"
   xml:space="preserve"
   inkscape:version="1.3 (0e150ed6c4, 2023-07-21)"
   sodipodi:docname="MS-white.svg"
   inkscape:export-filename="MS-right-Heart.png"
   inkscape:export-xdpi="96"
   inkscape:export-ydpi="96"
   xmlns:inkscape="http://www.inkscape.org/namespaces/inkscape"
   xmlns:sodipodi="http://sodipodi.sourceforge.net/DTD/sodipodi-0.dtd"
   xmlns="http://www.w3.org/2000/svg"
   xmlns:svg="http://www.w3.org/2000/svg"><sodipodi:namedview
     id="namedview7"
     pagecolor="#ffffff"
     bordercolor="#111111"
     borderopacity="1"
     inkscape:showpageshadow="0"
     inkscape:pageopacity="0"
     inkscape:pagecheckerboard="1"
     inkscape:deskcolor="#d1d1d1"
     inkscape:document-units="mm"
     showgrid="false"
     inkscape:zoom="2.1646365"
     inkscape:cx="194.72092"
     inkscape:cy="218.51244"
     inkscape:window-width="1304"
     inkscape:window-height="745"
     inkscape:window-x="-8"
     inkscape:window-y="-8"
     inkscape:window-maximized="1"
     inkscape:current-layer="layer1" /><defs
     id="defs2" /><g
     inkscape:label="Capa 1"
     inkscape:groupmode="layer"
     id="layer1"><path
       style="fill:#ffffff;stroke-width:0;fill-opacity:1;stroke-dasharray:none"
       d="m 42.002612,87.319559 c -4.575148,-0.68713 -6.929961,-1.2896 -13.361458,-3.41845 -2.354985,-0.77951 -9.033214,-4.0793 -10.139111,-5.00986 -1.621904,-1.36474 -0.89911,-2.30885 2.251379,-2.94075 2.122207,-0.42565 2.122207,-0.42565 2.266908,-23.74519 0.205317,-33.08794 0.492389,-29.02624 -2.23851,-31.67178 -3.364018,-3.25887 -3.380422,-3.23082 4.156197,-7.10649 6.215861,-3.19647 7.949951,-3.7487997 15.477095,-4.9296097 12.812244,-2.0099098 26.802934,-0.63118 35.454164,3.4938797 10.09218,4.81213 10.51017,5.11325 9.25906,6.67008 -0.48453,0.60294 -0.95866,1.09625 -1.05365,1.09625 -2.47962,0 -4.07749,53.99377 -1.64245,55.50024 1.28521,0.7951 3.46427,2.80219 3.31121,3.04987 -0.2058,0.33296 -3.04036,1.57513 -5.24397,2.29802 -1.01864,0.33417 -3.03575,1.07568 -4.48249,1.64781 -1.44671,0.57212 -4.26482,1.44809 -6.26244,1.9466 -1.99763,0.49851 -3.95036,1.02739 -4.33937,1.17529 -0.87159,0.33138 -3.49065,0.8675 -7.69924,1.57603 -2.99238,0.50378 -13.215324,0.74324 -15.713324,0.36806 z m 12.432024,-1.32578 c 6.33199,-1.28566 10.11477,-3.22084 13.79898,-7.05922 1.64608,-1.71495 1.55025,-0.26521 1.55025,-23.4497 0,-27.22575 -0.0586,-28.28664 -1.3376,-24.21784 -0.13721,0.43656 -0.71141,1.92484 -1.27595,3.307287 -0.56457,1.38245 -1.23593,3.16838 -1.49191,3.96875 -0.25598,0.80036 -0.81706,2.28864 -1.24682,3.30729 -0.42979,1.01865 -1.23955,3.12164 -1.79949,4.67332 -0.55993,1.551683 -1.30937,3.397153 -1.66539,4.101053 -0.59071,1.16789 -1.24058,2.78948 -3.74688,9.34959 -0.47257,1.23692 -1.47714,3.73724 -2.23236,5.55625 -0.75523,1.81901 -1.61125,4.00371 -1.90227,4.85489 -0.29103,0.85118 -0.82007,2.20545 -1.17565,3.00949 -0.35558,0.80403 -0.64651,1.63328 -0.64651,1.84278 0,0.2095 -0.29135,1.01785 -0.64744,1.79634 -0.35608,0.77849 -0.84442,2.09306 -1.08519,2.92128 -1.0605,3.64801 -2.500714,5.49904 -2.500714,3.21405 0,-0.33855 -1.73716,-4.74348 -2.52161,-6.39404 -0.3458,-0.72761 -1.00416,-2.33495 -1.46302,-3.57188 -0.45886,-1.23692 -1.580215,-4.15396 -2.491893,-6.48229 -0.91168,-2.32833 -2.165601,-5.72161 -2.786494,-7.54062 -0.620892,-1.81901 -1.420352,-3.96214 -1.776571,-4.7625 -0.972259,-2.18449 -2.983325,-7.704673 -2.983325,-8.188943 0,-0.23351 -0.188907,-0.69427 -0.419796,-1.02391 -0.37602,-0.53685 -2.209504,-5.67054 -3.135323,-8.77882 -0.195048,-0.65484 -0.731224,-2.0617 -1.191498,-3.126337 -0.460274,-1.06465 -1.201113,-2.96965 -1.646309,-4.23333 -1.746734,-4.95812 -1.699797,-5.03953 -1.8976,3.29152 -0.893074,37.61448 -0.325487,46.13493 3.208626,48.16685 0.684993,0.39383 1.935806,1.17811 2.779586,1.74285 0.843777,0.56473 2.212996,1.24305 3.042708,1.50737 5.514586,1.75679 7.193997,2.14365 10.335219,2.38077 1.79872,0.13578 3.34653,0.32508 3.43958,0.42065 0.24623,0.25291 4.607254,-0.11486 6.912664,-0.58295 z m -1.6158,-26.01947 c 0.0752,1.4571 0.47319,0.42798 0.6907,-1.78594 0.2632,-2.67902 -0.32123,-2.73032 -0.75353,-0.0661 -0.059,0.36381 -0.0575,-0.0934 0.003,-1.01592 0.0609,-0.92255 0.33973,-2.17271 0.61962,-2.77812 0.80873,-1.7493 2.58416,-6.4323 2.78459,-7.344823 0.10059,-0.458 0.39952,-1.20497 0.66429,-1.65995 0.46852,-0.8051 0.74595,-1.58094 2.23427,-6.24812 0.3939,-1.23524 1.04603,-2.96165 1.44915,-3.83646 0.68205,-1.480037 1.70165,-4.054357 2.98776,-7.543687 0.29501,-0.80036 0.68699,-1.81239 0.87103,-2.24896 0.18405,-0.43656 0.65477,-1.68671 1.04603,-2.77812 0.39124,-1.09141 1.07075,-2.81781 1.51001,-3.83646 0.43923,-1.01865 1.07018,-2.56646 1.4021,-3.43958 0.33192,-0.87313 0.85987,-2.22731 1.17322,-3.0093 0.69054,-1.72341 0.98261,-1.49019 -2.49574,-1.99294 -10.10084,-1.4599497 -29.355343,-1.0923997 -32.676041,0.62375 -0.601562,0.31089 0.58842,5.01061 1.574983,6.22024 0.254346,0.31186 1.745212,4.27425 2.776055,7.37815 0.379233,1.14189 0.851128,2.23777 1.048653,2.43529 0.197527,0.19753 0.803325,1.70404 1.346218,3.34781 0.542893,1.64377 1.385478,3.941157 1.872408,5.105327 1.72123,4.11515 4.6955,11.67724 5.671504,14.419793 0.54376,1.52797 1.35406,3.79016 1.80066,5.02708 0.44661,1.23693 1.08684,3.20146 1.42274,4.36563 0.61074,2.11667 0.61074,2.11667 0.76944,0.92604 0.14691,-1.1022 0.16225,-1.12185 0.20648,-0.26458 z"
       id="path179" /><rect
       style="fill:#ffffff;stroke-width:0;fill-opacity:1;stroke-dasharray:none"
       id="rect314"
       width="5.0851717"
       height="58.823002"
       x="91.310722"
       y="-75.081627"
       transform="matrix(0.46780633,0.883831,-0.36118362,0.93249472,0,0)" /><rect
       style="fill:#ffffff;stroke-width:0;fill-opacity:1;stroke-dasharray:none"
       id="rect316"
       width="5.0851717"
       height="58.823002"
       x="31.681412"
       y="-104.9726"
       transform="matrix(0.46780633,-0.883831,-0.36118362,-0.93249472,0,0)" /><rect
       style="fill:#ffffff;stroke-width:0;fill-opacity:1;stroke-dasharray:none"
       id="rect318"
       width="5.747509"
       height="66.710114"
       x="19.622835"
       y="-110.69753"
       transform="matrix(0.37062914,-0.92878094,-0.36311981,-0.93174246,0,0)" /><rect
       style="fill:#ffffff;stroke-width:0;fill-opacity:1;stroke-dasharray:none"
       id="rect320"
       width="3.3913062"
       height="66.546783"
       x="100.68479"
       y="10.439086"
       transform="matrix(0.42001118,0.90751893,0.37371679,-0.92754286,0,0)" /><g
       id="g1264"
       transform="translate(-96.62978,-14.349449)"
       style="fill:#ffffff;fill-opacity:1;stroke-width:0;stroke-dasharray:none"><path
         style="fill:#ffffff;stroke-width:0;fill-opacity:1;stroke-dasharray:none"
         d="m 150.81123,58.045462 3.89332,-11.50082 c -1.94647,1.634911 -5.51642,1.583755 -7.62578,-0.009 z"
         id="path1248"
         sodipodi:nodetypes="cccc" /><path
         id="path1250"
         style="fill-rule:evenodd;stroke:#000000;stroke-width:0;fill:#ffffff;fill-opacity:1;stroke-dasharray:none"
         d="m 150.27991,43.062472 h 1.48825 c -0.95258,0.48107 -0.75658,0.896411 0.2779,1.333176 h -2.183 c 0.8867,-0.459831 1.23335,-0.873345 0.41685,-1.333176 z"
         sodipodi:nodetypes="ccccc" /><path
         style="fill:#ffffff;fill-rule:evenodd;stroke:#000000;stroke-width:0;stroke-opacity:1;fill-opacity:1;stroke-dasharray:none"
         id="path1252"
         sodipodi:type="arc"
         sodipodi:cx="150.97325"
         sodipodi:cy="42.171276"
         sodipodi:rx="1.2443631"
         sodipodi:ry="1.2443631"
         sodipodi:start="3.1167974"
         sodipodi:end="3.1113925"
         sodipodi:open="true"
         sodipodi:arc-type="arc"
         d="m 149.72927,42.202127 a 1.2443631,1.2443631 0 0 1 1.21145,-1.274789 1.2443631,1.2443631 0 0 1 1.27642,1.209725 1.2443631,1.2443631 0 0 1 -1.208,1.278058 1.2443631,1.2443631 0 0 1 -1.27968,-1.206271" /><g
         id="g1262"
         transform="matrix(0.94463759,0,0,1,8.4252897,0.04631613)"
         style="fill:#ffffff;fill-opacity:1;stroke-width:0;stroke-dasharray:none"><g
           id="g1256"
           transform="matrix(0.72892133,0,0,0.72892133,40.94061,17.358813)"
           style="fill:#ffffff;fill-opacity:1;stroke-width:0;stroke-dasharray:none"><path
             id="path1254"
             style="stroke-width:0;fill:#ffffff;fill-opacity:1;stroke-dasharray:none"
             transform="rotate(-165)"
             d="m -158.63418,1.4979167 c -0.0674,-1.28285773 2.05403,-2.35454826 4.7681,-2.40877458 2.71407,-0.054226 3.92235,1.22298349 4.08454,2.50394618 0.1622,1.2809627 -0.78153,2.0930504 -3.48993,2.1920419 -2.7084,0.098991 -3.46524,-1.67433 -3.72209,-2.95183321 l 3.33792,0.60629361 z"
             sodipodi:nodetypes="csssccc" /></g><g
           id="g1260"
           transform="matrix(-0.72892133,0,0,0.72892133,260.7929,17.358813)"
           style="fill:#ffffff;fill-opacity:1;stroke-width:0;stroke-dasharray:none"><path
             id="path1258"
             style="stroke-width:0;fill:#ffffff;fill-opacity:1;stroke-dasharray:none"
             transform="rotate(-165)"
             d="m -158.63418,1.4979167 c -0.0674,-1.28285773 2.05403,-2.35454826 4.7681,-2.40877458 2.71407,-0.054226 3.92235,1.22298349 4.08454,2.50394618 0.1622,1.2809627 -0.78153,2.0930504 -3.48993,2.1920419 -2.7084,0.098991 -4.20174,-1.4769837 -4.45859,-2.7544869 l 4.07442,0.4089473 z"
             sodipodi:nodetypes="csssccc" /></g></g></g></g></svg>
